<svg xmlns="http://www.w3.org/2000/svg" xmlns:xlink="http://www.w3.org/1999/xlink" viewBox="0,0,256,256" width="150px" height="150px"><g fill-opacity="0.47059" fill="#000000" fill-rule="nonzero" stroke="none" stroke-width="1" stroke-linecap="butt" stroke-linejoin="miter" stroke-miterlimit="10" stroke-dasharray="" stroke-dashoffset="0" font-family="none" font-weight="none" font-size="none" text-anchor="none" style="mix-blend-mode: normal"><g transform="scale(5.12,5.12)"><path d="M25,2c-12.68359,0 -23,10.31641 -23,23c0,12.68359 10.31641,23 23,23c12.68359,0 23,-10.31641 23,-23c0,-12.68359 -10.31641,-23 -23,-23zM21.40625,15.82422c0.31641,-0.53906 1.00781,-0.71875 1.54688,-0.40234l1.00391,0.58594c0.53906,0.31641 0.72266,1.00781 0.40625,1.55078l-0.99609,1.70313l-2.95703,-1.73047zM10.32813,23.32422h6.14453l-1.95703,3.30859h-4.1875zM11.80859,36.07422c-0.07422,0.07031 -0.18359,0.08203 -0.27344,0.03125c-0.08594,-0.05078 -0.12891,-0.15234 -0.10156,-0.25l1.42969,-5.41016l2.95703,1.73047zM13.23438,29.80469l6.93359,-11.85937l2.95703,1.73047l-6.93359,11.85938zM19.58984,26.63281l1.83594,-3.30469h7.08594l1.83594,3.30469zM23.18359,13.01953c-0.31641,-0.53906 -0.12891,-1.23437 0.41016,-1.54687l0.91797,-0.53516c0.53906,-0.3125 1.23047,-0.12891 1.54688,0.41016l7.83984,13.49609l-2.875,1.67188zM31.34375,27.07031l2.875,-1.67187l1.66406,2.86328l-2.875,1.66797zM37.39453,35.98438c-0.06641,0.09375 -0.23437,0.01563 -0.28516,-0.0625c-0.13281,-0.21094 -0.01562,-0.5 -0.4375,-1.14453c-0.77734,-1.18359 -1.80469,-0.94922 -2.79687,-2.61719c-0.17578,-0.29297 -0.76953,-1.63672 0,-2.09375c0.41016,-0.24609 1.10547,-0.66016 1.57422,-0.92187c0.78906,-0.44922 1.51953,0.49219 1.92188,1.08203c0.86719,1.26563 1.21875,4.10938 0.02344,5.75781zM39.62891,26.63281h-4.12109l-1.80078,-3.30469h5.92188z"></path></g></g></svg>